<?xml version="1.0" encoding="UTF-8"?>
<svg id="Layer_1" xmlns="http://www.w3.org/2000/svg" viewBox="0 0 464.8 948.67">
  <defs>
    <style>
      .cls-1 {
        fill: #070c11;
      }

      .cls-2 {
        fill: #f5e7df;
      }
    </style>
  </defs>
  <g>
    <rect class="cls-2" x="86.55" y="551.15" width="291.65" height="397.52"/>
    <polygon class="cls-1" points="89.93 948.67 89.93 554.54 374.81 554.54 374.81 948.67 381.63 948.67 381.63 547.71 83.16 547.71 83.16 948.67 89.93 948.67"/>
  </g>
  <ellipse class="cls-1" cx="232.4" cy="543.73" rx="149.73" ry="38.08"/>
  <g>
    <path class="cls-2" d="M234.08,291.36H37.8l28.96,167.68c8.48,49.09,51.07,84.95,100.89,84.95h129.51c49.82,0,92.41-35.86,100.89-84.95l28.96-167.68h-192.92Z"/>
    <path class="cls-1" d="M297.15,547.88h-129.5c-51.85,0-95.89-37.09-104.71-88.18l-29.75-172.22h398.42l-29.75,172.22c-8.82,51.1-52.86,88.18-104.71,88.18ZM42.4,295.25l28.18,163.13c8.18,47.36,49,81.73,97.06,81.73h129.5c48.06,0,88.88-34.37,97.06-81.73l28.18-163.13H42.4Z"/>
  </g>
  <path class="cls-1" d="M407.3,382.52H57.49c-31.7,0-57.49-25.79-57.49-57.49V122.12h464.8v202.9c0,31.7-25.79,57.49-57.49,57.49Z"/>
  <path class="cls-2" d="M7.76,129.89v195.14c0,27.42,22.31,49.73,49.73,49.73h349.81c27.42,0,49.73-22.31,49.73-49.73v-195.14H7.76Z"/>
  <path class="cls-1" d="M25.22,126s11.61-62.68,180.35-41.04c65.83,8.44,121.67-4.6,129.38-27.84,4.87-14.69-11.46-33.51-26.59-47.5,2.63-1.27,49.51-23.03,90.59,3.39,34.75,22.35,50.1,69.36,34.56,112.98H25.22Z"/>
  <g>
    <g>
      <polygon class="cls-1" points="289.84 346.25 299.22 346.25 299.22 343.49 292.34 343.49 292.34 337.75 297.94 337.75 297.94 334.99 292.34 334.99 292.34 329.26 299.22 329.26 299.22 326.49 289.84 326.49 289.84 346.25"/>
      <polygon class="cls-1" points="197.85 346.25 207.23 346.25 207.23 343.49 200.34 343.49 200.34 337.75 205.94 337.75 205.94 334.99 200.34 334.99 200.34 329.26 207.23 329.26 207.23 326.49 197.85 326.49 197.85 346.25"/>
      <polygon class="cls-1" points="303.91 346.25 313.29 346.25 313.29 343.49 306.4 343.49 306.4 337.75 312 337.75 312 334.99 306.4 334.99 306.4 329.26 313.29 329.26 313.29 326.49 303.91 326.49 303.91 346.25"/>
      <polygon class="cls-1" points="170.92 329.08 172.91 329.08 172.91 326.43 166.36 326.43 166.36 329.08 168.34 329.08 168.34 343.6 166.25 343.6 166.25 346.25 173.01 346.25 173.01 343.6 170.92 343.6 170.92 329.08"/>
      <path class="cls-1" d="M233.7,329.39c1.55,0,3.06.66,4.17,1.82l1.8-2c-1.6-1.73-3.72-2.68-5.97-2.68-5.11,0-8.68,4.07-8.68,9.89s3.65,9.89,8.68,9.89c2.25,0,4.36-.94,5.97-2.65l-1.8-2.02c-1.12,1.16-2.63,1.82-4.17,1.82-3.57,0-6.06-2.89-6.06-7.04s2.44-7.04,6.06-7.04Z"/>
      <rect class="cls-1" x="244.63" y="343.41" width="11.36" height="2.84"/>
      <path class="cls-1" d="M245.69,338.76c6.84,5.83,14.64-2.83,9.38-10.41-6.83-5.84-14.64,2.82-9.38,10.41ZM250.38,337.83c-2.13,0-3.86-1.92-3.86-4.28s1.73-4.28,3.86-4.28,3.86,1.92,3.86,4.28-1.73,4.28-3.86,4.28Z"/>
      <polygon class="cls-1" points="275.72 346.25 278.21 346.25 278.21 343.49 278.21 339.32 278.21 337.75 283.81 337.75 283.81 334.99 278.21 334.99 278.21 329.26 285.1 329.26 285.1 326.49 275.72 326.49 275.72 346.25"/>
      <polygon class="cls-1" points="261.56 346.25 264.06 346.25 264.06 343.49 264.06 339.32 264.06 337.75 269.66 337.75 269.66 334.99 264.06 334.99 264.06 329.26 270.94 329.26 270.94 326.49 261.56 326.49 261.56 346.25"/>
      <polygon class="cls-1" points="151.51 346.25 154 346.25 154 343.49 154 339.32 154 337.75 159.6 337.75 159.6 334.99 154 334.99 154 329.26 160.89 329.26 160.89 326.49 151.51 326.49 151.51 346.25"/>
      <polygon class="cls-1" points="189.73 339.29 178.5 326.27 178.35 326.27 178.35 346.16 181.12 346.16 181.12 333.43 192.37 346.47 192.5 346.47 192.5 326.56 189.73 326.56 189.73 339.29"/>
    </g>
    <g>
      <path class="cls-1" d="M214.06,263.3c6.77-3.99,10.94-11.26,10.92-19.12-.01-5.86-2.37-11.4-6.64-15.6-4.25-4.18-9.84-6.48-15.72-6.48h-32.49v12.52h32.55c2.69,0,5.29,1.12,7.14,3.06,1.83,1.92,2.76,4.42,2.63,7.03-.26,5.12-4.47,9.12-9.6,9.12h-32.73v4.81h-.04s0,47.85,0,47.85h12.52v-40.14h18.95l20.35,39.75.2.39h14.07l-22.12-43.2Z"/>
      <polygon class="cls-1" points="316.41 306.1 361.48 306.1 361.48 293.08 329.43 293.08 329.43 270.47 355.49 270.47 355.49 257.45 329.43 257.45 329.43 234.84 361.48 234.84 361.48 221.82 316.41 221.82 316.41 306.1"/>
      <rect class="cls-1" x="103.31" y="222.09" width="55.45" height="13.02"/>
      <rect class="cls-1" x="124.53" y="242.22" width="13.02" height="63.88"/>
      <path class="cls-1" d="M271.39,306.1c.2,0,.39,0,.59,0,8.64-.15,16.75-3.64,22.83-9.83,6.09-6.19,9.44-14.37,9.44-23.03v-51.13h-42.22v13.02h29.19v37.76c0,5.5-2.16,10.65-6.08,14.51-3.82,3.75-8.83,5.76-14.11,5.67-5.22-.09-10.11-2.2-13.78-5.93-3.68-3.74-5.7-8.68-5.7-13.9v-51.15h-13.02v50.71c0,4.57.91,9,2.69,13.17,1.73,4.04,4.19,7.65,7.33,10.73,6.18,6.08,14.28,9.4,22.84,9.4Z"/>
      <path class="cls-1" d="M258.81,202.13l.81.8.37-1.09c1.38-4.09,4.21-7.15,6.79-9.6.48-.46.98-.92,1.47-1.36.74-.67,1.5-1.37,2.22-2.09.82-.83,1.67-1.66,2.48-2.47,2.65-2.62,5.38-5.34,7.91-8.17,1.68-1.88,3.02-4.12,3.78-6.3,1.59-4.54.52-8.86-3.19-12.85l-.78-.84-.41,1.08c-1.47,3.87-4.23,6.27-7.16,8.82l-.07.06c-1.14.99-2.32,1.99-3.46,2.96-2.45,2.08-4.97,4.22-7.34,6.47-2.11,2.01-4.03,4.29-5.7,6.78-1.71,2.56-2.42,5.78-2,9.09.42,3.3,1.94,6.39,4.27,8.7Z"/>
      <path class="cls-1" d="M281.62,186.65c-1.06,1.16-2.24,2.26-3.39,3.32-.38.35-.76.7-1.13,1.06-.74.7-1.5,1.4-2.23,2.07-1.37,1.27-2.79,2.58-4.14,3.92-1.15,1.15-2.47,2.55-3.5,4.14-2.44,3.78-2.09,7.63,1.03,11.47l.71.87.49-1.02c1.63-3.39,4.3-5.73,7.12-8.22.3-.27.61-.53.91-.8.43-.38.87-.76,1.3-1.13,1.23-1.06,2.51-2.16,3.62-3.39,1.65-1.81,3.36-3.77,4.58-5.98,1.96-3.53,1.82-7.35-.39-11.05l-.54-.9-.64.82c-.42.54-.83,1.07-1.22,1.59-.86,1.14-1.68,2.22-2.58,3.21Z"/>
    </g>
  </g>
</svg>