<?xml version="1.0" encoding="UTF-8"?>
<svg id="Layer_1" xmlns="http://www.w3.org/2000/svg" viewBox="0 0 269.3 269.3">
  <defs>
    <style>
      .cls-1 {
        fill: #0e0e0f;
      }

      .cls-2 {
        fill: #f5e7df;
      }
    </style>
  </defs>
  <rect class="cls-1" width="269.3" height="269.3" rx="57.64" ry="57.64"/>
  <rect class="cls-2" x="10.48" y="10.48" width="248.34" height="248.34" rx="47.16" ry="47.16"/>
  <path class="cls-1" d="M175.54,55.6h-81.77c-21.07,0-38.16,17.09-38.16,38.16v81.77c0,21.07,17.09,38.16,38.16,38.16h81.77c21.07,0,38.16-17.09,38.16-38.16v-81.77c0-21.07-17.09-38.16-38.16-38.16ZM200.07,172.81c0,15.05-12.21,27.26-27.26,27.26h-76.32c-15.05,0-27.26-12.21-27.26-27.26v-76.32c0-15.05,12.21-27.26,27.26-27.26h76.32c15.05,0,27.26,12.21,27.26,27.26v76.32Z"/>
  <path class="cls-1" d="M134.65,93.76c-22.57,0-40.89,18.32-40.89,40.89s18.32,40.89,40.89,40.89,40.89-18.32,40.89-40.89-18.32-40.89-40.89-40.89ZM134.65,161.91c-15.02,0-27.26-12.24-27.26-27.26s12.24-27.26,27.26-27.26,27.26,12.24,27.26,27.26-12.24,27.26-27.26,27.26Z"/>
  <circle class="cls-1" cx="178.26" cy="91.04" r="8.18"/>
</svg>