<?xml version="1.0" encoding="UTF-8"?>
<svg id="Layer_1" xmlns="http://www.w3.org/2000/svg" viewBox="0 0 269.3 269.3">
  <defs>
    <style>
      .cls-1 {
        fill-rule: evenodd;
        stroke: #000;
        stroke-miterlimit: 10;
        stroke-width: 2px;
      }

      .cls-2 {
        fill: #0e0e0f;
      }
    </style>
  </defs>
  <path class="cls-2" d="M211.66,269.3H57.64c-31.78,0-57.64-25.86-57.64-57.64V57.64C0,25.86,25.86,0,57.64,0h154.02c31.78,0,57.64,25.86,57.64,57.64v154.02c0,31.78-25.86,57.64-57.64,57.64ZM57.64,10.48c-26,0-47.16,21.16-47.16,47.16v154.02c0,26,21.16,47.16,47.16,47.16h154.02c26,0,47.16-21.16,47.16-47.16V57.64c0-26-21.16-47.16-47.16-47.16H57.64Z"/>
  <path class="cls-1" d="M134.65,51.07c46.16,0,83.58,37.42,83.58,83.58s-37.42,83.58-83.58,83.58-83.58-37.42-83.58-83.58,37.42-83.58,83.58-83.58ZM139.57,83.02h-9.83v51.63c0,1.06.33,2.04.9,2.84l18.41,31.88,8.49-4.88-17.97-31.12v-50.36h0ZM139.57,61.07v7.7h-9.83v-7.7c-36.81,2.42-66.25,31.86-68.67,68.67h7.7v9.83h-7.7c2.42,36.81,31.86,66.25,68.67,68.67v-7.71s9.82,0,9.82,0v7.7c36.81-2.42,66.25-31.86,68.67-68.67h-7.7v-9.83h7.7c-2.42-36.81-31.85-66.24-68.66-68.66h0Z"/>
</svg>