<?xml version="1.0" encoding="iso-8859-1"?>
<!-- Generator: Adobe Illustrator 19.0.0, SVG Export Plug-In . SVG Version: 6.00 Build 0)  -->
<svg version="1.1" id="Layer_1" xmlns="http://www.w3.org/2000/svg" xmlns:xlink="http://www.w3.org/1999/xlink" x="0px" y="0px"
	 viewBox="0 0 330 330" style="enable-background:new 0 0 330 330;" xml:space="preserve">
<g id="XMLID_20_">
	<path id="XMLID_21_" d="M315,30h-85V15c0-8.284-6.716-15-15-15s-15,6.716-15,15v15h-70V15c0-8.284-6.716-15-15-15s-15,6.716-15,15
		v15H15C6.716,30,0,36.716,0,45v270c0,8.284,6.716,15,15,15h300c8.284,0,15-6.716,15-15V45C330,36.716,323.284,30,315,30z M300,60
		v30H30V60H300z M30,300V120h270v180H30z"/>
	<path id="XMLID_25_" d="M100.213,159.846H78.654c-5.414,0-9.654,3.918-9.654,8.921v83.075c0,5.072,4.24,9.045,9.654,9.045h21.559
		c19.698,0,31.459-11.987,31.459-32.064v-37.03C131.672,171.789,119.911,159.846,100.213,159.846z M89.039,179.276h11.174
		c8.005,0,11.421,3.743,11.421,12.517v37.03c0,8.857-3.416,12.636-11.421,12.636H89.039V179.276z"/>
	<path id="XMLID_28_" d="M205.821,248.865l-25.337-82.708c-0.014-0.043-0.027-0.086-0.042-0.129
		c-1.391-4.201-5.538-6.916-10.565-6.916c-5.033,0-9.146,2.752-10.484,7.037l-25.392,82.481c-0.454,1.238-0.454,2.334-0.454,2.845
		c0,5.814,5.517,9.412,10.627,9.412c4.392,0,7.886-2.525,8.947-6.449l4.295-14.379h24.803l4.319,14.472
		c0.02,0.065,0.04,0.13,0.061,0.195c1.277,3.8,4.623,6.161,8.732,6.161c5.252,0,10.875-3.83,10.875-9.53
		c0-0.667-0.102-1.223-0.184-1.585C205.98,249.465,205.912,249.162,205.821,248.865z M163.101,221.117l6.753-22.304l6.696,22.304
		H163.101z"/>
	<path id="XMLID_31_" d="M250.597,159.846c-3.596,0-6.706,2.096-8.52,5.723l-17.168,33.871l-17.058-33.843
		c-2.504-5.004-6.423-5.751-8.536-5.751c-4.994,0-10.384,3.599-10.384,9.412c0,1,0.176,2.969,1.335,5.053l24.607,47.193v30.214
		c0,5.142,4.402,9.169,10.021,9.169c5.713,0,10.021-3.942,10.021-9.169v-29.97l24.894-47.513c0.075-0.143,0.145-0.289,0.208-0.438
		c0.612-1.442,0.964-3.096,0.964-4.539C260.98,163.445,255.591,159.846,250.597,159.846z"/>
</g>
<g>
</g>
<g>
</g>
<g>
</g>
<g>
</g>
<g>
</g>
<g>
</g>
<g>
</g>
<g>
</g>
<g>
</g>
<g>
</g>
<g>
</g>
<g>
</g>
<g>
</g>
<g>
</g>
<g>
</g>
</svg>
