<?xml version="1.0" encoding="utf-8"?>
<!-- Generator: Adobe Illustrator 27.0.0, SVG Export Plug-In . SVG Version: 6.00 Build 0)  -->
<svg version="1.1" id="Layer_1" xmlns="http://www.w3.org/2000/svg" xmlns:xlink="http://www.w3.org/1999/xlink" x="0px" y="0px"
	 viewBox="0 0 795 795" style="enable-background:new 0 0 795 795;" xml:space="preserve">
<g>
	<path d="M15.2127867,397.4888306c0-55.5903015-0.8063602-111.1947327,0.1713381-166.7678375
		C17.297472,121.9648285,99.8131638,30.8227997,207.9159546,17.0395966
		c10.3379211-1.3180933,20.837616-1.9008617,31.2633667-1.9143543
		c105.5028687-0.1365433,211.0065308-0.2883368,316.5089111-0.0263672
		c107.7613525,0.2675791,195.6987305,70.2691956,219.0793457,174.7487488
		c3.5533447,15.8786774,4.8858643,32.5508881,4.9517822,48.8653259
		c0.4272461,105.8001709,0.526123,211.6040955,0.1339722,317.404541
		c-0.3999023,107.9053345-70.578064,195.5541382-175.1807861,218.7058105
		c-15.8900757,3.5169067-32.5605469,4.8130493-48.8790283,4.8781128
		c-105.5013428,0.4210815-211.0057678,0.4318848-316.5081177,0.1548462
		c-107.6960602-0.2827759-195.820755-70.4248047-219.0530853-174.7991943
		c-3.7257977-16.7386475-4.7385616-34.3330078-4.9438124-51.5562744
		c-0.6196566-51.9974976-0.2237549-104.0070801-0.2237549-156.0119324
		C15.1141043,397.4888611,15.1634455,397.4888306,15.2127867,397.4888306z M398.4052734,91.2577362
		c-54.6958618,0-109.3920288-0.1006012-164.0871887,0.0953751c-9.5255432,0.0341339-19.2127686,0.4281235-28.5431824,2.1684647
		c-68.2633972,12.7327957-114.3062668,68.1893768-114.4349899,138.062973
		c-0.2037048,110.5868378-0.1011658,221.1743927,0.0366745,331.7614746
		c0.0107498,8.628418,0.5540543,17.3970947,2.1352615,25.8604736
		c12.8097687,68.5639648,68.3601303,114.3581543,138.9758911,114.4546509
		c109.9892273,0.1503296,219.9789124,0.0899658,329.9682007-0.0543823
		c8.9244385-0.0117188,17.9945068-0.5682983,26.7471924-2.2062378
		c67.9403076-12.7139893,114.237915-67.9160156,114.4318848-137.1678467
		c0.3113403-111.1841431,0.1290283-222.369812-0.0093384-333.5546265
		c-0.0103149-8.3283691-0.6334839-16.786377-2.1611328-24.9618835
		c-12.6921997-67.9225006-67.8518066-114.0093384-137.1800537-114.3938522
		C508.992981,91.0156403,453.6984558,91.260437,398.4052734,91.2577362z"/>
	<path d="M588.751709,403.2715454c-4.772644,106.7018127-93.0139465,189.9484863-196.6163025,185.4874268
		c-107.074585-4.6105957-190.2836151-92.8323669-185.8999634-197.0991821
		c4.4884796-106.7598877,93.5664673-190.3892975,197.5133057-185.4321442
		C510.524292,211.3197174,593.3897705,299.5785217,588.751709,403.2715454z M512.2720947,397.0629272
		c-0.1505737-63.1065979-51.7362061-114.4215088-114.9561157-114.3528442
		c-63.207428,0.0686951-114.5656128,51.4816895-114.5818787,114.7041321
		c-0.0163269,63.5289307,51.7710571,115.0658264,115.3912659,114.8331604
		C461.1586914,512.0169067,512.4229126,460.2866516,512.2720947,397.0629272z"/>
	<path d="M646.2478027,196.6460114c-0.0461426,26.1750946-21.7988892,47.9006042-47.9265747,47.8666382
		c-26.140564-0.0339203-47.8840942-21.8170624-47.852417-47.9395905
		c0.0316772-26.1557922,21.7850342-47.8789825,47.9224243-47.8559418
		C624.5409546,148.7401581,646.2938232,170.5259399,646.2478027,196.6460114z"/>
</g>
<g>
</g>
<g>
</g>
<g>
</g>
<g>
</g>
<g>
</g>
<g>
</g>
</svg>
