<?xml version="1.0" encoding="utf-8"?>
<!-- Generator: Adobe Illustrator 27.0.0, SVG Export Plug-In . SVG Version: 6.00 Build 0)  -->
<svg version="1.1" id="Layer_1" xmlns="http://www.w3.org/2000/svg" xmlns:xlink="http://www.w3.org/1999/xlink" x="0px" y="0px"
	 viewBox="0 0 795 623" style="enable-background:new 0 0 795 623;" xml:space="preserve">
<g>
	<path d="M768.2827759,382.2637329c0.7479248-5.2537231,1.2575684-10.7106323,1.7498779-15.9861145
		c0.2262573-2.4309387,0.4525757-4.8618774,0.7012939-7.285553v-10.3114929
		c-0.4024658-3.410553-0.7514038-6.8283691-1.0986328-10.2534485c-0.7565918-7.4161682-1.5374146-15.0826721-2.8951416-22.3355713
		c-7.3605347-39.2795105-25.4570312-73.6318512-53.7833252-102.0991669c-0.2055664-0.2068024-0.4249268-0.373703-0.677124-0.5732574
		l-7.253479-6.004776l56.604187-64.7281189l-17.6231689-0.0036163c-32.6102905-0.0108948-65.2153931-0.0108948-97.8187866,0.0798187
		c-5.8473511,0-10.710022-1.5238647-15.4155273-4.7929382c-53.8713989-37.4581299-113.8181763-60.947464-178.1750488-69.8185577
		c-7.6162109-1.0485687-15.5260925-1.6472321-23.1734009-2.2241211c-3.9989624-0.3011475-7.8960571-0.5986633-11.7879333-0.9506073
		c-1.4354858-0.1269836-2.8640747-0.3374252-4.2891846-0.5478668l-1.2575684-0.1814117h-29.5112915
		c-2.760437,0.2576065-5.8214111,0.5188446-8.8824158,0.7728195c-6.7041321,0.5623779-13.3944397,1.1283875-20.0709229,1.8395309
		c-62.2200623,6.6251984-121.256485,27.4550247-175.4699249,61.9053345c-0.7566071,0.4825592-1.5374146,0.950592-2.319931,1.4113922
		c-1.6306915,0.9723663-3.1318207,1.8685455-4.1820984,2.8227844c-9.8117523,8.9109955-20.6323395,9.9958496-30.9174194,9.8688507
		c-28.8185959-0.3156586-58.1571503-0.27211-86.5214386-0.2176819l-20.9225502,0.0253906l56.3830948,64.4777679
		l-5.0630798,5.0323944c-1.4527588,1.4476776-2.9348907,2.8590698-4.4101105,4.2595673
		c-3.0540848,2.9098663-5.8801498,5.5984039-8.3469086,8.4973907
		C43.561348,258.1628113,27.78652,297.3552246,24.9673653,341.4385681c-0.0880985,1.3968811-0.3247566,2.703064-0.5786877,4.0273743
		l-0.1226463,0.6530762v15.5870056c0.3282108,2.6740112,0.6287823,5.348053,0.9310799,8.0220642l0.0518227,0.4499207
		c0.7030621,6.2406006,1.4216709,12.6190796,2.4270306,18.7362976
		C40.1548691,464.8065796,98.9719009,527.7278442,170.706604,541.928833
		c59.1452484,11.7156372,112.3654175-3.2654419,158.2181396-44.5042114l8.3503723-7.3798828l60.1868896,68.708313
		l60.1989746-68.7264404l8.9290466,8.0220642c38.5336304,34.8312683,83.5813599,50.76297,133.8666382,47.3269958
		C685.0917969,539.5776978,755.6743164,470.978241,768.2827759,382.2637329z M303.1723328,454.6474609
		c-25.6625977,26.7910461-59.7861176,41.5471802-96.0844727,41.5471802h-0.1934662
		c-74.5089417-0.1088562-135.049942-64.04599-134.9635773-142.5288391
		c0.04319-38.1620178,14.2097855-73.9620361,39.8913879-100.8147736
		c25.5710449-26.7366333,59.5805511-41.4600983,95.7648926-41.4600983h0.4508514
		c74.5953217,0.2575989,135.1916046,64.2020264,135.0914154,142.5397339
		C343.0809937,392.0273743,328.8901978,427.7983704,303.1723328,454.6474609z M395.6533813,404.6972351l-5.5692139-67.1372681
		c-3.3995667-40.9703064-17.7717285-76.7050171-43.9387207-109.2468414
		c-24.1096497-29.9911804-55.3535461-53.1467285-92.8610992-68.8280487l-11.9278564-4.9779816l10.3800812-7.931366
		c19.4110718-14.8323212,96.6890564-31.7399979,145.0655518-31.7399979h0.4940491
		c50.4338379,0.1269913,99.083252,10.3042526,144.6077576,30.2415237l15.2479858,6.6759949l-15.1235962,6.9807739
		c-82.2857971,38.0023651-127.387085,96.6059875-137.8829346,179.1670074L395.6533813,404.6972351z M587.1054077,496.1982727
		c-74.6350098-0.0435486-135.3401489-63.8827209-135.4023132-142.303894
		c-0.0293884-37.9624634,14.0853882-73.7189331,39.7462769-100.6877747
		c25.6643372-26.9688416,59.7066345-41.8193054,95.8581848-41.8193054
		c74.7697754-0.0036316,135.6044312,63.8428345,135.6096191,142.3256531
		c0.001709,38.187439-14.1061401,74.0128479-39.7255859,100.8728333
		C657.5946655,481.4203796,623.4711304,496.1982727,587.1054077,496.1982727z"/>
	<path d="M140.102951,353.6077881c0.1182709-39.3616638,30.3358154-70.7849426,67.8786469-70.5870972
		c37.07901,0.1953735,67.1901245,32.2147827,66.9610291,71.2046814
		c-0.2293091,39.0271606-30.5053101,70.4584045-67.7710876,70.3570251
		C169.986145,424.4812622,139.9853973,392.7332764,140.102951,353.6077881z"/>
	<path d="M654.7149048,353.8913879c-0.0247803,39.1683655-30.0093994,70.6626282-67.3056641,70.6943054
		c-37.1696777,0.0315552-67.4329224-31.6424255-67.4973145-70.6437988
		c-0.0646973-39.2204285,30.2148438-70.9543152,67.671814-70.9221497
		C624.7697144,283.0516663,654.7396851,314.6915283,654.7149048,353.8913879z"/>
</g>
<g>
</g>
<g>
</g>
<g>
</g>
<g>
</g>
<g>
</g>
<g>
</g>
</svg>
