<?xml version="1.0" encoding="UTF-8"?>
<svg id="Layer_1" xmlns="http://www.w3.org/2000/svg" viewBox="0 0 269.3 269.3">
  <defs>
    <style>
      .cls-1 {
        fill: none;
      }

      .cls-2 {
        fill: #0e0e0f;
      }

      .cls-3 {
        fill: #f5e7df;
      }
    </style>
  </defs>
  <rect class="cls-1" width="269.3" height="269.3" rx="57.64" ry="57.64"/>
  <rect class="cls-3" x="10.48" y="10.48" width="248.34" height="248.34" rx="47.16" ry="47.16"/>
  <path class="cls-2" d="M179.88,124.54l-2.17,17.44c-.37,2.92-2.83,5.11-5.76,5.11h-28.25v72.93c-2.98.27-6,.4-9.05.4-6.82,0-13.49-.68-19.93-1.98v-71.35h-21.73c-1.99,0-3.62-1.64-3.62-3.64v-21.83c0-2,1.63-3.64,3.62-3.64h21.73v-32.74c0-20.09,16.22-36.37,36.22-36.37h25.35c1.99,0,3.62,1.64,3.62,3.64v21.83c0,2-1.63,3.64-3.62,3.64h-18.11c-8,0-14.49,6.51-14.49,14.55v25.46h30.42c3.49,0,6.19,3.07,5.76,6.55Z"/>
</svg>