<?xml version="1.0" encoding="UTF-8"?>
<svg id="Layer_1" xmlns="http://www.w3.org/2000/svg" viewBox="0 0 269.3 269.3">
  <defs>
    <style>
      .cls-1 {
        fill: #fff;
      }
    </style>
  </defs>
  <path class="cls-1" d="M179.88,124.54l-2.17,17.44c-.37,2.92-2.83,5.11-5.76,5.11h-28.25v72.93c-2.98.27-6,.4-9.05.4-6.82,0-13.49-.68-19.93-1.98v-71.35h-21.73c-1.99,0-3.62-1.64-3.62-3.64v-21.83c0-2,1.63-3.64,3.62-3.64h21.73v-32.74c0-20.09,16.22-36.37,36.22-36.37h25.35c1.99,0,3.62,1.64,3.62,3.64v21.83c0,2-1.63,3.64-3.62,3.64h-18.11c-8,0-14.49,6.51-14.49,14.55v25.46h30.42c3.49,0,6.19,3.07,5.76,6.55Z"/>
  <path class="cls-1" d="M211.66,269.3H57.64c-31.78,0-57.64-25.86-57.64-57.64V57.64C0,25.86,25.86,0,57.64,0h154.02c31.78,0,57.64,25.86,57.64,57.64v154.02c0,31.78-25.86,57.64-57.64,57.64ZM57.64,10.48c-26,0-47.16,21.16-47.16,47.16v154.02c0,26,21.16,47.16,47.16,47.16h154.02c26,0,47.16-21.16,47.16-47.16V57.64c0-26-21.16-47.16-47.16-47.16H57.64Z"/>
</svg>