<?xml version="1.0" encoding="UTF-8"?>
<svg id="Layer_1" xmlns="http://www.w3.org/2000/svg" viewBox="0 0 269.3 269.3">
  <defs>
    <style>
      .cls-1 {
        fill: #fff;
      }
    </style>
  </defs>
  <path class="cls-1" d="M175.54,55.6h-81.77c-21.07,0-38.16,17.09-38.16,38.16v81.77c0,21.07,17.09,38.16,38.16,38.16h81.77c21.07,0,38.16-17.09,38.16-38.16v-81.77c0-21.07-17.09-38.16-38.16-38.16ZM200.07,172.81c0,15.05-12.21,27.26-27.26,27.26h-76.32c-15.05,0-27.26-12.21-27.26-27.26v-76.32c0-15.05,12.21-27.26,27.26-27.26h76.32c15.05,0,27.26,12.21,27.26,27.26v76.32Z"/>
  <path class="cls-1" d="M134.65,93.76c-22.57,0-40.89,18.32-40.89,40.89s18.32,40.89,40.89,40.89,40.89-18.32,40.89-40.89-18.32-40.89-40.89-40.89ZM134.65,161.91c-15.02,0-27.26-12.24-27.26-27.26s12.24-27.26,27.26-27.26,27.26,12.24,27.26,27.26-12.24,27.26-27.26,27.26Z"/>
  <circle class="cls-1" cx="178.26" cy="91.04" r="8.18"/>
  <path class="cls-1" d="M211.66,269.3H57.64c-31.78,0-57.64-25.86-57.64-57.64V57.64C0,25.86,25.86,0,57.64,0h154.02c31.78,0,57.64,25.86,57.64,57.64v154.02c0,31.78-25.86,57.64-57.64,57.64ZM57.64,10.48c-26,0-47.16,21.16-47.16,47.16v154.02c0,26,21.16,47.16,47.16,47.16h154.02c26,0,47.16-21.16,47.16-47.16V57.64c0-26-21.16-47.16-47.16-47.16H57.64Z"/>
</svg>