<?xml version="1.0" encoding="UTF-8"?>
<svg id="Layer_1" xmlns="http://www.w3.org/2000/svg" viewBox="0 0 269.3 269.3">
  <defs>
    <style>
      .cls-1 {
        fill-rule: evenodd;
      }

      .cls-1, .cls-2 {
        fill: #fff;
      }
    </style>
  </defs>
  <g id="location">
    <path class="cls-1" d="M134.65,79.87c-17.73,0-32.15,14.38-32.15,32.05s14.42,32.05,32.15,32.05,32.15-14.38,32.15-32.05-14.42-32.05-32.15-32.05ZM134.65,138.64c-14.78,0-26.79-11.98-26.79-26.71s12.01-26.71,26.79-26.71,26.79,11.98,26.79,26.71-12.01,26.71-26.79,26.71ZM134.65,49.17c-35.46,0-64.3,28.4-64.3,64.12s32.15,75.65,55.59,102.54c.09.1,3.85,4.3,8.5,4.3h.41c4.65,0,8.41-4.19,8.5-4.3,23.45-26.88,55.59-65.14,55.59-102.54s-28.84-64.12-64.3-64.12ZM135.27,208.82c-.11.1-.44.35-.72.53-.05-.15-.45-.46-.69-.71-19.64-22.53-52.79-60.55-52.79-95.34,0-29.46,24.04-53.44,53.58-53.44s53.58,23.97,53.58,53.44c0,34.79-33.15,72.81-52.96,95.53Z"/>
  </g>
  <path class="cls-2" d="M211.66,269.3H57.64c-31.78,0-57.64-25.86-57.64-57.64V57.64C0,25.86,25.86,0,57.64,0h154.02c31.78,0,57.64,25.86,57.64,57.64v154.02c0,31.78-25.86,57.64-57.64,57.64ZM57.64,10.48c-26,0-47.16,21.16-47.16,47.16v154.02c0,26,21.16,47.16,47.16,47.16h154.02c26,0,47.16-21.16,47.16-47.16V57.64c0-26-21.16-47.16-47.16-47.16H57.64Z"/>
</svg>