<?xml version="1.0" encoding="UTF-8"?>
<svg id="Layer_1" xmlns="http://www.w3.org/2000/svg" viewBox="0 0 269.3 269.3">
  <defs>
    <style>
      .cls-1 {
        fill-rule: evenodd;
      }

      .cls-1, .cls-2 {
        fill: #fff;
      }
    </style>
  </defs>
  <path class="cls-2" d="M211.66,269.3H57.64c-31.78,0-57.64-25.86-57.64-57.64V57.64C0,25.86,25.86,0,57.64,0h154.02c31.78,0,57.64,25.86,57.64,57.64v154.02c0,31.78-25.86,57.64-57.64,57.64ZM57.64,10.48c-26,0-47.16,21.16-47.16,47.16v154.02c0,26,21.16,47.16,47.16,47.16h154.02c26,0,47.16-21.16,47.16-47.16V57.64c0-26-21.16-47.16-47.16-47.16H57.64Z"/>
  <g id="mail">
    <path class="cls-1" d="M197.77,79.58h-126.24c-11.62,0-21.04,9.39-21.04,20.98v68.18c0,11.59,9.42,20.98,21.04,20.98h126.24c11.62,0,21.04-9.39,21.04-20.98v-68.18c0-11.59-9.42-20.98-21.04-20.98ZM61.01,107.12l36.81,27.54-36.81,27.53v-55.07ZM197.77,179.23h-126.24c-5.8,0-10.52-4.7-10.52-10.49l41.2-30.81,22.98,17.19c2.8,2.09,6.13,3.15,9.47,3.15s6.66-1.06,9.47-3.15l22.98-17.19,41.2,30.81c0,5.79-4.72,10.49-10.52,10.49ZM208.29,162.18l-36.81-27.53,36.81-27.54v55.07ZM140.96,150.92c-1.84,1.37-4.02,2.1-6.31,2.1s-4.47-.73-6.31-2.1l-21.75-16.26-4.38-3.28-41.2-30.81h0c0-5.79,4.72-10.49,10.52-10.49h126.24c5.8,0,10.52,4.71,10.52,10.49l-67.33,50.36Z"/>
  </g>
</svg>