<?xml version="1.0" encoding="UTF-8"?>
<svg id="Layer_1" xmlns="http://www.w3.org/2000/svg" viewBox="0 0 269.3 269.3">
  <defs>
    <style>
      .cls-1 {
        fill: none;
      }

      .cls-2 {
        fill-rule: evenodd;
        stroke: #000;
        stroke-miterlimit: 10;
        stroke-width: 2px;
      }

      .cls-3 {
        fill: #f5e7df;
      }
    </style>
  </defs>
  <rect class="cls-1" width="269.3" height="269.3" rx="57.64" ry="57.64"/>
  <rect class="cls-3" x="10.48" y="10.48" width="248.34" height="248.34" rx="47.16" ry="47.16"/>
  <path class="cls-2" d="M134.65,51.07c46.16,0,83.58,37.42,83.58,83.58s-37.42,83.58-83.58,83.58-83.58-37.42-83.58-83.58,37.42-83.58,83.58-83.58ZM139.57,83.02h-9.83v51.63c0,1.06.33,2.04.9,2.84l18.41,31.88,8.49-4.88-17.97-31.12v-50.36h0ZM139.57,61.07v7.7h-9.83v-7.7c-36.81,2.42-66.25,31.86-68.67,68.67h7.7v9.83h-7.7c2.42,36.81,31.86,66.25,68.67,68.67v-7.71s9.82,0,9.82,0v7.7c36.81-2.42,66.25-31.86,68.67-68.67h-7.7v-9.83h7.7c-2.42-36.81-31.85-66.24-68.66-68.66h0Z"/>
</svg>