<?xml version="1.0" encoding="UTF-8"?>
<svg id="Layer_1" xmlns="http://www.w3.org/2000/svg" viewBox="0 0 269.3 269.3">
  <defs>
    <style>
      .cls-1, .cls-2 {
        fill: none;
      }

      .cls-3 {
        fill-rule: evenodd;
      }

      .cls-2 {
        stroke: #000;
        stroke-linejoin: round;
      }

      .cls-4 {
        fill: #f5e7df;
      }
    </style>
  </defs>
  <rect class="cls-1" width="269.3" height="269.3" rx="57.64" ry="57.64"/>
  <rect class="cls-4" x="10.48" y="10.48" width="248.34" height="248.34" rx="47.16" ry="47.16"/>
  <g id="phone">
    <path class="cls-3" d="M176.73,50.73h-84.16c-8.72,0-15.78,7.05-15.78,15.74v136.37c0,8.69,7.06,15.73,15.78,15.73h84.16c8.72,0,15.78-7.05,15.78-15.74V66.46c0-8.69-7.06-15.73-15.78-15.73ZM181.99,202.83c0,2.89-2.36,5.24-5.26,5.24h-84.16c-2.9,0-5.26-2.35-5.26-5.24v-10.51h94.68s0,10.5,0,10.5ZM181.99,187.07h-94.68s0-104.87,0-104.87h94.68s0,104.87,0,104.87ZM181.99,76.95h-94.68s0-10.48,0-10.48c0-2.89,2.36-5.24,5.26-5.24h84.16c2.9,0,5.26,2.35,5.26,5.24v10.49ZM142.54,66.46h-15.78c-1.45,0-2.63,1.17-2.63,2.62s1.18,2.62,2.63,2.62h15.78c1.45,0,2.63-1.17,2.63-2.62s-1.18-2.62-2.63-2.62ZM132.02,202.81h5.26c1.45,0,2.63-1.17,2.63-2.62s-1.18-2.62-2.63-2.62h-5.26c-1.45,0-2.63,1.17-2.63,2.62s1.18,2.62,2.63,2.62Z"/>
    <path class="cls-2" d="M176.73,50.73h-84.16c-8.72,0-15.78,7.05-15.78,15.74v136.37c0,8.69,7.06,15.73,15.78,15.73h84.16c8.72,0,15.78-7.05,15.78-15.74V66.46c0-8.69-7.06-15.73-15.78-15.73ZM181.99,202.83c0,2.89-2.36,5.24-5.26,5.24h-84.16c-2.9,0-5.26-2.35-5.26-5.24v-10.51h94.68s0,10.5,0,10.5ZM181.99,187.07h-94.68s0-104.87,0-104.87h94.68s0,104.87,0,104.87ZM181.99,76.95h-94.68s0-10.48,0-10.48c0-2.89,2.36-5.24,5.26-5.24h84.16c2.9,0,5.26,2.35,5.26,5.24v10.49ZM142.54,66.46h-15.78c-1.45,0-2.63,1.17-2.63,2.62s1.18,2.62,2.63,2.62h15.78c1.45,0,2.63-1.17,2.63-2.62s-1.18-2.62-2.63-2.62ZM132.02,202.81h5.26c1.45,0,2.63-1.17,2.63-2.62s-1.18-2.62-2.63-2.62h-5.26c-1.45,0-2.63,1.17-2.63,2.62s1.18,2.62,2.63,2.62Z"/>
  </g>
</svg>